<mxfile host="app.diagrams.net" modified="2024-06-27T10:50:02.175Z" agent="Mozilla/5.0 (Windows NT 10.0; Win64; x64) AppleWebKit/537.36 (KHTML, like Gecko) Chrome/126.0.0.0 Safari/537.36" etag="1ZzCXAakP0BI1bpjKoXy" version="24.6.3" type="device">
  <diagram name="Seite-1" id="-H6B8lZ1e9_mx1BWJwPN">
    <mxGraphModel dx="2074" dy="1132" grid="1" gridSize="10" guides="1" tooltips="1" connect="1" arrows="1" fold="1" page="1" pageScale="1" pageWidth="1169" pageHeight="827" math="0" shadow="0">
      <root>
        <mxCell id="0" />
        <mxCell id="1" parent="0" />
        <mxCell id="7_yGWYWNmhmv1In8e6tN-1" value="c: Client" style="shape=umlLifeline;perimeter=lifelinePerimeter;whiteSpace=wrap;html=1;container=1;dropTarget=0;collapsible=0;recursiveResize=0;outlineConnect=0;portConstraint=eastwest;newEdgeStyle={&quot;curved&quot;:0,&quot;rounded&quot;:0};" vertex="1" parent="1">
          <mxGeometry x="40" y="40" width="100" height="640" as="geometry" />
        </mxCell>
        <mxCell id="7_yGWYWNmhmv1In8e6tN-2" value="h: Hotelsuche" style="shape=umlLifeline;perimeter=lifelinePerimeter;whiteSpace=wrap;html=1;container=1;dropTarget=0;collapsible=0;recursiveResize=0;outlineConnect=0;portConstraint=eastwest;newEdgeStyle={&quot;curved&quot;:0,&quot;rounded&quot;:0};" vertex="1" parent="1">
          <mxGeometry x="240" y="100" width="100" height="580" as="geometry" />
        </mxCell>
        <mxCell id="7_yGWYWNmhmv1In8e6tN-3" value="a: ReiseAnbieterAdapter" style="shape=umlLifeline;perimeter=lifelinePerimeter;whiteSpace=wrap;html=1;container=1;dropTarget=0;collapsible=0;recursiveResize=0;outlineConnect=0;portConstraint=eastwest;newEdgeStyle={&quot;curved&quot;:0,&quot;rounded&quot;:0};" vertex="1" parent="1">
          <mxGeometry x="400" y="160" width="140" height="520" as="geometry" />
        </mxCell>
        <mxCell id="7_yGWYWNmhmv1In8e6tN-4" value="e: SuchErgebnis" style="shape=umlLifeline;perimeter=lifelinePerimeter;whiteSpace=wrap;html=1;container=1;dropTarget=0;collapsible=0;recursiveResize=0;outlineConnect=0;portConstraint=eastwest;newEdgeStyle={&quot;curved&quot;:0,&quot;rounded&quot;:0};" vertex="1" parent="1">
          <mxGeometry x="880" y="430" width="100" height="210" as="geometry" />
        </mxCell>
        <mxCell id="7_yGWYWNmhmv1In8e6tN-31" value="" style="shape=umlDestroy;whiteSpace=wrap;html=1;strokeWidth=3;targetShapes=umlLifeline;" vertex="1" parent="7_yGWYWNmhmv1In8e6tN-4">
          <mxGeometry x="35" y="190" width="30" height="30" as="geometry" />
        </mxCell>
        <mxCell id="7_yGWYWNmhmv1In8e6tN-5" value="s: SuchAuftrag" style="shape=umlLifeline;perimeter=lifelinePerimeter;whiteSpace=wrap;html=1;container=1;dropTarget=0;collapsible=0;recursiveResize=0;outlineConnect=0;portConstraint=eastwest;newEdgeStyle={&quot;curved&quot;:0,&quot;rounded&quot;:0};" vertex="1" parent="1">
          <mxGeometry x="720" y="320" width="100" height="320" as="geometry" />
        </mxCell>
        <mxCell id="7_yGWYWNmhmv1In8e6tN-30" value="" style="shape=umlDestroy;whiteSpace=wrap;html=1;strokeWidth=3;targetShapes=umlLifeline;" vertex="1" parent="7_yGWYWNmhmv1In8e6tN-5">
          <mxGeometry x="35" y="300" width="30" height="30" as="geometry" />
        </mxCell>
        <mxCell id="7_yGWYWNmhmv1In8e6tN-7" value="" style="endArrow=classic;html=1;rounded=0;" edge="1" parent="1" source="7_yGWYWNmhmv1In8e6tN-1">
          <mxGeometry width="50" height="50" relative="1" as="geometry">
            <mxPoint x="560" y="480" as="sourcePoint" />
            <mxPoint x="240" y="120" as="targetPoint" />
          </mxGeometry>
        </mxCell>
        <mxCell id="7_yGWYWNmhmv1In8e6tN-8" value="new()" style="text;html=1;align=center;verticalAlign=middle;resizable=0;points=[];autosize=1;strokeColor=none;fillColor=none;" vertex="1" parent="1">
          <mxGeometry x="125" y="98" width="50" height="30" as="geometry" />
        </mxCell>
        <mxCell id="7_yGWYWNmhmv1In8e6tN-9" value="" style="endArrow=classic;html=1;rounded=0;" edge="1" parent="1" source="7_yGWYWNmhmv1In8e6tN-1">
          <mxGeometry width="50" height="50" relative="1" as="geometry">
            <mxPoint x="560" y="480" as="sourcePoint" />
            <mxPoint x="400" y="180" as="targetPoint" />
          </mxGeometry>
        </mxCell>
        <mxCell id="7_yGWYWNmhmv1In8e6tN-10" value="new(h)" style="text;html=1;align=center;verticalAlign=middle;resizable=0;points=[];autosize=1;strokeColor=none;fillColor=none;" vertex="1" parent="1">
          <mxGeometry x="130" y="158" width="60" height="30" as="geometry" />
        </mxCell>
        <mxCell id="7_yGWYWNmhmv1In8e6tN-11" value="" style="endArrow=classic;html=1;rounded=0;" edge="1" parent="1" source="7_yGWYWNmhmv1In8e6tN-1" target="7_yGWYWNmhmv1In8e6tN-3">
          <mxGeometry width="50" height="50" relative="1" as="geometry">
            <mxPoint x="560" y="480" as="sourcePoint" />
            <mxPoint x="610" y="430" as="targetPoint" />
            <Array as="points">
              <mxPoint x="280" y="240" />
            </Array>
          </mxGeometry>
        </mxCell>
        <mxCell id="7_yGWYWNmhmv1In8e6tN-12" value="runQuery(q: QueryObject)" style="text;html=1;align=center;verticalAlign=middle;resizable=0;points=[];autosize=1;strokeColor=none;fillColor=none;" vertex="1" parent="1">
          <mxGeometry x="110" y="216" width="160" height="30" as="geometry" />
        </mxCell>
        <mxCell id="7_yGWYWNmhmv1In8e6tN-13" value="" style="endArrow=classic;html=1;rounded=0;" edge="1" parent="1">
          <mxGeometry width="50" height="50" relative="1" as="geometry">
            <mxPoint x="469.5" y="408" as="sourcePoint" />
            <mxPoint x="289.5" y="408" as="targetPoint" />
            <Array as="points" />
          </mxGeometry>
        </mxCell>
        <mxCell id="7_yGWYWNmhmv1In8e6tN-16" value="" style="endArrow=classic;html=1;rounded=0;" edge="1" parent="1">
          <mxGeometry width="50" height="50" relative="1" as="geometry">
            <mxPoint x="469.5" y="270" as="sourcePoint" />
            <mxPoint x="469.5" y="290" as="targetPoint" />
            <Array as="points">
              <mxPoint x="500" y="280" />
            </Array>
          </mxGeometry>
        </mxCell>
        <mxCell id="7_yGWYWNmhmv1In8e6tN-18" value="transformToSuchAuftrag(q)" style="text;html=1;align=center;verticalAlign=middle;resizable=0;points=[];autosize=1;strokeColor=none;fillColor=none;" vertex="1" parent="1">
          <mxGeometry x="490" y="265" width="170" height="30" as="geometry" />
        </mxCell>
        <mxCell id="7_yGWYWNmhmv1In8e6tN-19" value="" style="endArrow=classic;html=1;rounded=0;" edge="1" parent="1">
          <mxGeometry width="50" height="50" relative="1" as="geometry">
            <mxPoint x="469.5" y="339.5" as="sourcePoint" />
            <mxPoint x="720" y="340" as="targetPoint" />
          </mxGeometry>
        </mxCell>
        <mxCell id="7_yGWYWNmhmv1In8e6tN-20" value="new()" style="text;html=1;align=center;verticalAlign=middle;resizable=0;points=[];autosize=1;strokeColor=none;fillColor=none;" vertex="1" parent="1">
          <mxGeometry x="545" y="318" width="50" height="30" as="geometry" />
        </mxCell>
        <mxCell id="7_yGWYWNmhmv1In8e6tN-21" value="sucheHotel(s)" style="text;html=1;align=center;verticalAlign=middle;resizable=0;points=[];autosize=1;strokeColor=none;fillColor=none;" vertex="1" parent="1">
          <mxGeometry x="310" y="378" width="100" height="30" as="geometry" />
        </mxCell>
        <mxCell id="7_yGWYWNmhmv1In8e6tN-22" value="" style="endArrow=classic;html=1;rounded=0;" edge="1" parent="1">
          <mxGeometry width="50" height="50" relative="1" as="geometry">
            <mxPoint x="289.5" y="450" as="sourcePoint" />
            <mxPoint x="880" y="450" as="targetPoint" />
          </mxGeometry>
        </mxCell>
        <mxCell id="7_yGWYWNmhmv1In8e6tN-23" value="new()" style="text;html=1;align=center;verticalAlign=middle;resizable=0;points=[];autosize=1;strokeColor=none;fillColor=none;" vertex="1" parent="1">
          <mxGeometry x="335" y="428" width="50" height="30" as="geometry" />
        </mxCell>
        <mxCell id="7_yGWYWNmhmv1In8e6tN-24" value="" style="endArrow=classic;html=1;rounded=0;dashed=1;" edge="1" parent="1">
          <mxGeometry width="50" height="50" relative="1" as="geometry">
            <mxPoint x="289.5" y="500" as="sourcePoint" />
            <mxPoint x="469.5" y="500" as="targetPoint" />
          </mxGeometry>
        </mxCell>
        <mxCell id="7_yGWYWNmhmv1In8e6tN-25" value="return e" style="text;html=1;align=center;verticalAlign=middle;resizable=0;points=[];autosize=1;strokeColor=none;fillColor=none;" vertex="1" parent="1">
          <mxGeometry x="340" y="478" width="60" height="30" as="geometry" />
        </mxCell>
        <mxCell id="7_yGWYWNmhmv1In8e6tN-26" value="" style="endArrow=classic;html=1;rounded=0;" edge="1" parent="1">
          <mxGeometry width="50" height="50" relative="1" as="geometry">
            <mxPoint x="469.5" y="540" as="sourcePoint" />
            <mxPoint x="469.5" y="560" as="targetPoint" />
            <Array as="points">
              <mxPoint x="510" y="550" />
            </Array>
          </mxGeometry>
        </mxCell>
        <mxCell id="7_yGWYWNmhmv1In8e6tN-27" value="transformToQueryResult(e)" style="text;html=1;align=center;verticalAlign=middle;resizable=0;points=[];autosize=1;strokeColor=none;fillColor=none;" vertex="1" parent="1">
          <mxGeometry x="500" y="535" width="170" height="30" as="geometry" />
        </mxCell>
        <mxCell id="7_yGWYWNmhmv1In8e6tN-28" value="" style="endArrow=classic;html=1;rounded=0;" edge="1" parent="1">
          <mxGeometry width="50" height="50" relative="1" as="geometry">
            <mxPoint x="469.5" y="600" as="sourcePoint" />
            <mxPoint x="89.5" y="600" as="targetPoint" />
          </mxGeometry>
        </mxCell>
        <mxCell id="7_yGWYWNmhmv1In8e6tN-29" value="return r: QueryResult" style="text;html=1;align=center;verticalAlign=middle;resizable=0;points=[];autosize=1;strokeColor=none;fillColor=none;" vertex="1" parent="1">
          <mxGeometry x="140" y="578" width="140" height="30" as="geometry" />
        </mxCell>
      </root>
    </mxGraphModel>
  </diagram>
</mxfile>
